<mxfile host="app.diagrams.net" modified="2023-05-23T17:06:23.011Z" agent="Mozilla/5.0 (X11; Linux x86_64) AppleWebKit/537.36 (KHTML, like Gecko) Chrome/113.0.0.0 Safari/537.36" version="21.3.2" etag="fY0NqPl-EBia0wKJ-Hja" type="github">
  <diagram name="Page-1" id="GlEn-n4C-CFuINXIEY8s">
    <mxGraphModel>
      <root>
        <mxCell id="0" />
        <mxCell id="1" parent="0" />
      </root>
    </mxGraphModel>
  </diagram>
</mxfile>
